# xmcd
#
# Track frame offsets: 
#        150
#        19832
#        41742
#        55625
#        77117
#        103613
#        130208
#        150744
#        171433
#        185352
#        204619
#        216374
#        233480
#        248037
#        264395
#
# Disc length: 3751 seconds
#
# Revision: 1
# Processed by: cddbd v1.5.2PL0 Copyright (c) Steve Scherf et al.
# Submitted via: ExactAudioCopy v1.3
#
DISCID=ca0ea50f
DTITLE=Mary Coughlan - Irish Mail On Sunday - Red Blues
DYEAR=2010
DGENRE=Blues
TTITLE0=Aint No Love In The Heart Of The City
TTITLE1=Blue Light Boogie
TTITLE2=You Can Leave Your Hat On
TTITLE3=Portland
TTITLE4=I'd Rather Go Blind
TTITLE5=Black Coffee
TTITLE6=Pull Up To The Bumper
TTITLE7=At Last
TTITLE8=She's Got A Way With Men
TTITLE9=One For My Baby
TTITLE10=Strange Fruit
TTITLE11=Jester - Divine Sign
TTITLE12=Jester - Save Me
TTITLE13=Jester - No Other Moments
TTITLE14=Jester - Comes Back To You
EXTD=
EXTT0=
EXTT1=
EXTT2=
EXTT3=
EXTT4=
EXTT5=
EXTT6=
EXTT7=
EXTT8=
EXTT9=
EXTT10=
EXTT11=
EXTT12=
EXTT13=
EXTT14=
PLAYORDER=
